<svg viewBox="0 0 65 65" fill="none" xmlns="http://www.w3.org/2000/svg">
  <path d="M32.253.372s-11.52 18.164-13.763 22.717c-2.244 4.553-4.755 10.546-4.755 10.546.674-.307 1.446-.632 2.326-.939 0 0-.239 1.466.935 3.22 1.174 1.755 3.102 3.264 3.102 3.264s-1.37 2.027-1.37 3.538c0 1.512.304 2.052.304 2.052s.77-.309 1.916-.309c0 0-.074 1.534.936 2.587 1.009 1.052 2.327 1.511 2.327 1.511s-1.011 3.026 0 4.807c1.01 1.781 3.483 3.634 3.483 3.634s-.308-1.143 0-2.196c.307-1.052 1.164-2.244 1.164-2.244s1.011 2.098 3.338 3.295c2.327 1.196 6.654 1.609 6.654 1.609s-.77-1.416-1.01-2.76c-.24-1.345.011-2.873.011-2.873s2.098.508 3.107-.325c1.01-.834 1.626-2.822 1.626-2.822s1.442.69 2.597.254c1.155-.435 1.78-2.395 1.78-2.395s1.443.653 2.744.217c1.301-.435 1.889-2.18 1.889-2.18s1.661.544 2.525-.146c.865-.69 1.01-2.542 1.01-2.542s1.154.146 1.805-.798c.65-.943.578-2.577.578-2.577s1.227.145 1.66-.653c.434-.798.145-2.141.145-2.141.795.073 1.444-.29 1.878-1.016 0 0-11.304-18.777-13.258-22.556C43.771 18.537 32.253.372 32.253.372z" fill="#1793D1"/>
</svg>
